<svg width="32" height="32" viewBox="0 0 32 32" fill="none" xmlns="http://www.w3.org/2000/svg">
<path d="M16 31.75C24.6209 31.75 31.75 24.6366 31.75 16C31.75 7.37911 24.6209 0.25 15.9843 0.25C7.36341 0.25 0.25 7.37911 0.25 16C0.25 24.6366 7.37911 31.75 16 31.75ZM12.1214 25.2333C11.0693 25.2333 10.3941 24.5895 10.347 23.5531L9.73455 10.4883H8.52542C8.17996 10.4883 7.88161 10.2056 7.88161 9.84447C7.88161 9.4833 8.17996 9.20065 8.52542 9.20065H12.3883V7.8345C12.3883 6.70389 13.1735 5.95015 14.3198 5.95015H17.6488C18.7951 5.95015 19.5803 6.70389 19.5803 7.8345V9.20065H23.3961C23.7415 9.20065 24.0399 9.4833 24.0399 9.84447C24.0399 10.2056 23.7415 10.4883 23.3961 10.4883H22.2655L21.6373 23.5531C21.5902 24.5895 20.8993 25.2333 19.8629 25.2333H12.1214ZM13.7074 9.20065H18.2612V8.05434C18.2612 7.56755 17.9158 7.26919 17.3976 7.26919H14.5553C14.0528 7.26919 13.7074 7.56755 13.7074 8.05434V9.20065ZM13.1264 23.4432C13.4718 23.4432 13.676 23.2076 13.6603 22.8622L13.1892 12.2313C13.1735 11.9015 12.9536 11.6817 12.6239 11.6817C12.2784 11.6817 12.0272 11.9172 12.0586 12.247L12.5925 22.8936C12.6082 23.2233 12.8123 23.4432 13.1264 23.4432ZM16 23.4275C16.3298 23.4275 16.581 23.2076 16.581 22.8622V12.247C16.581 11.9015 16.3455 11.6817 16 11.6817C15.6388 11.6817 15.419 11.9015 15.419 12.247V22.8622C15.419 23.2076 15.6702 23.4275 16 23.4275ZM18.8736 23.4432C19.1877 23.4432 19.3918 23.2233 19.4075 22.8936L19.9414 12.247C19.9728 11.9172 19.7216 11.6817 19.3761 11.6817C19.0464 11.6817 18.8265 11.9015 18.8108 12.2313L18.3397 22.8622C18.324 23.2076 18.5282 23.4432 18.8736 23.4432Z" fill="#E93260"/>
</svg>
